<?xml version="1.0" encoding="UTF-8" standalone="no"?>
<svg
   xmlns:dc="http://purl.org/dc/elements/1.1/"
   xmlns:cc="http://creativecommons.org/ns#"
   xmlns:rdf="http://www.w3.org/1999/02/22-rdf-syntax-ns#"
   xmlns:svg="http://www.w3.org/2000/svg"
   xmlns="http://www.w3.org/2000/svg"
   id="svg8"
   version="1.1"
   viewBox="0 0 99 52"
   height="52mm"
   width="99mm">
  <defs
     id="defs2">
    <rect
       id="rect902"
       height="12.067219"
       width="28.718111"
       y="138.91335"
       x="-7.6706357" />
    <rect
       id="rect841"
       height="61.912498"
       width="242.62292"
       y="107.95"
       x="-24.870832" />
    <rect
       id="rect835"
       height="111.91875"
       width="196.85001"
       y="73.025002"
       x="-28.839582" />
  </defs>
  <metadata
     id="metadata5">
    <rdf:RDF>
      <cc:Work
         rdf:about="">
        <dc:format>image/svg+xml</dc:format>
        <dc:type
           rdf:resource="http://purl.org/dc/dcmitype/StillImage" />
        <dc:title></dc:title>
      </cc:Work>
    </rdf:RDF>
  </metadata>
  <g
     id="layer1">
    <path
       id="path908"
       style="font-style:normal;font-weight:normal;font-size:10.5833px;line-height:1.25;font-family:sans-serif;white-space:pre;fill:#6f7c91;fill-opacity:1;stroke:none;stroke-width:4.56597"
       d="m 70.919068,9.5056638 v 4.9009932 l 2.898532,1.67535 v -0.217559 h 5.689573 c 1.301015,0 1.827446,0.01 2.263429,0.06511 z m 13.006441,7.6992712 c 0.0671,0.128247 0.127725,0.262671 0.175183,0.409795 0.192439,0.60297 0.230479,1.103807 0.230479,2.279446 0,0.926526 -0.03806,1.622843 -0.161748,2.171444 l 5.356778,3.096453 -8.607743,4.975407 c -0.0089,0.709674 -0.03848,1.622076 -0.06925,1.949752 -0.112446,1.096639 -0.779259,1.794102 -1.867586,2.011762 -0.780441,0.160721 -1.566576,0.203089 -3.492293,0.203089 -0.690909,0 -1.247894,-0.0085 -1.723927,-0.02997 l -2.846334,1.645375 v 4.900994 l 23.59598,-13.96814 v -3.376539 z m -5.351095,1.626775 2.443263,1.412317 c -0.0012,-0.07237 -0.0026,-0.137814 -0.0026,-0.222726 0,-0.83819 -0.07387,-1.026989 -0.129191,-1.08779 l -0.0036,-0.0062 -0.0041,-0.0041 c -0.0018,-0.0021 -0.07824,-0.09147 -1.370976,-0.09147 z" />
    <path
       id="path906"
       style="font-style:normal;font-weight:normal;font-size:10.5833px;line-height:1.25;font-family:sans-serif;white-space:pre;fill:#6f7c91;fill-opacity:1;stroke:none;stroke-width:6.2955"
       d="M 36.525302,4.1576698 16.748215,15.864966 h 4.984192 v 3.011186 l -3.241146,-0.06615 0.01447,1.066602 h 2.516125 l 2.076876,-1.200444 v -2.811712 h 3.348116 V 16.74088 L 36.525302,10.914879 Z M 11.9914,18.680816 3.9918868,23.416442 v 4.655531 L 36.525302,47.330745 v -6.757728 l -11.954309,-6.91017 c -0.28875,0.21912 -0.633641,0.375978 -1.020092,0.457335 l -0.0031,5.16e-4 -0.0026,0.001 c -0.695296,0.139092 -1.451852,0.180351 -3.102652,0.180351 -2.718185,0 -3.784107,-0.13031 -4.507736,-0.89452 0.0011,0.0012 0.0015,0.0026 0.0026,0.0036 l -0.0062,-0.0062 c 0.001,0.0011 0.0026,0.0015 0.0036,0.0026 -0.498572,-0.51576 -0.629608,-1.134874 -0.684712,-2.21485 v -0.0016 -0.0016 c -0.01059,-0.232786 -0.01112,-0.254328 -0.0217,-1.397331 v -0.0031 -1.526521 l -4.357357,-2.518709 4.313949,-2.493389 -0.04392,-4.386812 h -3.149678 z m 6.594429,11.522291 c 0.0097,0.506622 0.01535,0.657741 0.05478,0.870234 0.01514,0.07499 -0.0051,0.197918 1.770435,0.197918 0.009,0 0.01277,-5.1e-4 0.0217,-5.16e-4 z" />
    <path
       id="path845"
       style="font-style:normal;font-variant:normal;font-weight:bold;font-stretch:normal;font-size:10.5833px;line-height:1.25;font-family:'Microgramma D Extended';-inkscape-font-specification:'Microgramma D Extended, Bold';font-variant-ligatures:normal;font-variant-caps:normal;font-variant-numeric:normal;font-variant-east-asian:normal;white-space:pre;fill:#373e48;fill-opacity:1;stroke:none;stroke-width:1"
       d="m 12.591363,16.46493 v 1.798855 h 3.143478 l 0.08475,8.439279 2.145088,-2.411222 -0.08165,-6.094203 3.249414,0.06615 v -1.798855 z" />
    <path
       d="m 23.698111,16.464767 v 4.1804 c 0,0.61383 -0.03175,0.77258 -0.201082,0.91017 -0.1905,0.17991 -0.603248,0.24341 -1.418163,0.24341 -0.793747,0 -1.164163,-0.0635 -1.333495,-0.23283 -0.148167,-0.14817 -0.179916,-0.3175 -0.179916,-1.09008 h -2.14841 c -0.02117,0.47625 -0.02117,0.53975 -0.02117,0.74083 0,0.99483 0.127,1.4605 0.476249,1.80975 0.476248,0.45508 1.269996,0.60324 3.354906,0.60324 1.979077,0 2.698741,-0.15875 3.164406,-0.68791 0.349249,-0.41275 0.455082,-0.92075 0.455082,-2.25424 v -4.22274 z"
       style="font-style:normal;font-variant:normal;font-weight:bold;font-stretch:normal;font-size:10.5833px;line-height:1.25;font-family:'Microgramma D Extended';-inkscape-font-specification:'Microgramma D Extended, Bold';font-variant-ligatures:normal;font-variant-caps:normal;font-variant-numeric:normal;font-variant-east-asian:normal;white-space:pre;fill:#373e48;fill-opacity:1;stroke:none"
       id="path847" />
    <path
       d="m 26.445575,16.464927 v 4.22197 c 0,1.37317 -0.09845,2.05345 -0.595313,2.64066 l -0.0041,0.006 -0.0041,0.004 c -0.05945,0.0676 -0.12193,0.12856 -0.186035,0.18655 l 8.240255,-1.8e-4 -1.251155,-1.69325 h -5.085341 v -1.1219 h 4.67053 l 0.01169,-1.55546 h -4.682223 v -1.02681 h 5.04245 l 1.251155,-1.66158 z"
       style="font-style:normal;font-variant:normal;font-weight:bold;font-stretch:normal;font-size:10.5833px;line-height:1.25;font-family:'Microgramma D Extended';-inkscape-font-specification:'Microgramma D Extended, Bold';font-variant-ligatures:normal;font-variant-caps:normal;font-variant-numeric:normal;font-variant-east-asian:normal;white-space:pre;fill:#373e48;fill-opacity:1;stroke:none;stroke-width:1"
       id="path849" />
    <path
       d="m 34.602423,16.46493 -1.700672,2.260844 v 0 l -5.29e-4,2.504238 v 0 0.0021 l 1.684135,2.215886 v -1.712556 h 3.037036 c 0.888997,0 1.047627,0.0209 1.195793,0.19017 0.169333,0.179919 0.211873,0.43408 0.211873,1.22783 v 0.37052 h 2.116667 v -0.656274 c 0.04233,-1.629828 -0.148088,-1.947291 -1.238168,-2.074291 0.423332,-0.0635 0.62419,-0.137356 0.825273,-0.296106 0.380999,-0.28575 0.486792,-0.68807 0.486792,-1.735812 0,-1.227669 -0.1584,-1.6935 -0.698148,-2.021581 -0.455083,-0.275169 -0.455071,-0.274918 -2.88923,-0.274918 z m -0.01705,1.767332 h 3.026688 c 0.973663,0.01061 1.005252,0.0104 1.153418,0.0739 0.222249,0.0952 0.306958,0.296323 0.306958,0.772562 0,0.4445 -0.06373,0.656397 -0.233061,0.762228 -0.148166,0.105841 -0.147819,0.105966 -1.227315,0.127124 h -3.026689 z"
       style="font-style:normal;font-variant:normal;font-weight:bold;font-stretch:normal;font-size:10.5833px;line-height:1.25;font-family:'Microgramma D Extended';-inkscape-font-specification:'Microgramma D Extended, Bold';font-variant-ligatures:normal;font-variant-caps:normal;font-variant-numeric:normal;font-variant-east-asian:normal;white-space:pre;fill:#373e48;fill-opacity:1;stroke:none;stroke-width:1"
       id="path851" />
    <path
       d="m 41.152264,16.464927 c 0.529779,0.48428 0.667142,1.18834 0.667142,2.2965 0,0.999 -0.123151,1.58196 -0.607198,2.04484 0.375895,0.41504 0.5608,1.01918 0.533301,2.07791 v 0.63975 h 1.194759 l -0.05271,-5.27048 h 0.232544 l 3.715018,5.27048 h 3.73569 v -7.059 h -2.190564 l 0.05271,5.25963 h -0.222209 l -3.693831,-5.25963 z m -0.04754,4.50309 c -0.0017,0.001 -0.004,0.001 -0.0057,0.002 -0.0029,0.002 -0.0027,0.006 -0.0057,0.008 z"
       style="font-style:normal;font-variant:normal;font-weight:bold;font-stretch:normal;font-size:10.5833px;line-height:1.25;font-family:'Microgramma D Extended';-inkscape-font-specification:'Microgramma D Extended, Bold';font-variant-ligatures:normal;font-variant-caps:normal;font-variant-numeric:normal;font-variant-east-asian:normal;white-space:pre;fill:#373e48;fill-opacity:1;stroke:none;stroke-width:1"
       id="path853" />
    <path
       d="m 55.10942,16.358997 c -1.693328,0 -2.66665,0.0424 -3.079398,0.12712 -0.367085,0.0798 -0.649951,0.21546 -0.859896,0.4253 v 3.35018 c 0.342591,0.29187 0.89111,0.411 1.737878,0.43667 l 0.571542,0.0212 1.143082,0.0527 1.693437,0.0636 c 0.687914,0.0106 0.84646,0.11617 0.84646,0.5395 0,0.62442 3.23e-4,0.62477 -2.306836,0.62477 -1.513412,0 -1.746602,-0.0213 -1.947685,-0.14832 -0.169332,-0.10583 -0.211356,-0.24329 -0.211356,-0.66662 h -1.526522 v 1.96887 c 0.02894,0.021 0.05566,0.0431 0.08733,0.0631 0.497415,0.3175 1.35426,0.41289 3.545003,0.41289 2.106077,0 2.995064,-0.0531 3.418395,-0.21187 0.730247,-0.27517 1.026811,-0.87868 1.026811,-2.10634 0,-0.98424 -0.179792,-1.46017 -0.666626,-1.77766 -0.45508,-0.28575 -0.910235,-0.33882 -3.238561,-0.4129 -1.492245,-0.0423 -2.074478,-0.0742 -2.264978,-0.12712 -0.222249,-0.0529 -0.317293,-0.19018 -0.317293,-0.45476 0,-0.51859 0.148027,-0.5612 1.968355,-0.5612 1.523995,0 1.788439,0.0213 1.968355,0.12712 0.158749,0.0952 0.190707,0.1903 0.211874,0.58188 h 2.074291 c 0.01058,-0.13758 0.01034,-0.2853 0.01034,-0.32763 0,-0.83608 -0.169397,-1.28056 -0.59273,-1.56631 -0.497414,-0.33866 -1.238112,-0.43408 -3.291272,-0.43408 z"
       style="font-style:normal;font-variant:normal;font-weight:bold;font-stretch:normal;font-size:10.5833px;line-height:1.25;font-family:'Microgramma D Extended';-inkscape-font-specification:'Microgramma D Extended, Bold';font-variant-ligatures:normal;font-variant-caps:normal;font-variant-numeric:normal;font-variant-east-asian:normal;white-space:pre;fill:#373e48;fill-opacity:1;stroke:none;stroke-width:1"
       id="path855" />
    <path
       id="path857"
       style="font-style:normal;font-variant:normal;font-weight:bold;font-stretch:normal;font-size:10.5833px;line-height:1.25;font-family:'Microgramma D Extended';-inkscape-font-specification:'Microgramma D Extended, Bold';font-variant-ligatures:normal;font-variant-caps:normal;font-variant-numeric:normal;font-variant-east-asian:normal;white-space:pre;fill:#373e48;fill-opacity:1;stroke:none;stroke-width:1"
       d="m 58.958799,16.464927 v 0.005 c 0.454025,0.41889 0.618408,1.02063 0.630968,1.79421 h 2.512509 v 5.26014 h 1.598869 l 0.655257,-1.23816 v -4.02198 h 2.129068 l 0.951881,-1.79886 z" />
    <path
       d="m 72.709726,23.523827 h 2.444742 l -3.693572,-7.05906 h -3.344322 l -3.735905,7.05906 h 2.455325 l 0.603248,-1.19591 h 4.667235 z m -1.354663,-2.74107 H 68.20124 l 1.365246,-2.67758 h 0.423332 z"
       style="font-style:normal;font-variant:normal;font-weight:bold;font-stretch:normal;font-size:10.5833px;line-height:1.25;font-family:'Microgramma D Extended';-inkscape-font-specification:'Microgramma D Extended, Bold';font-variant-ligatures:normal;font-variant-caps:normal;font-variant-numeric:normal;font-variant-east-asian:normal;white-space:pre;fill:#373e48;fill-opacity:1;stroke:none"
       id="path859" />
    <path
       id="path861"
       style="font-style:normal;font-variant:normal;font-weight:bold;font-stretch:normal;font-size:10.5833px;line-height:1.25;font-family:'Microgramma D Extended';-inkscape-font-specification:'Microgramma D Extended, Bold';font-variant-ligatures:normal;font-variant-caps:normal;font-variant-numeric:normal;font-variant-east-asian:normal;white-space:pre;fill:#373e48;fill-opacity:1;stroke:none;stroke-width:1"
       d="m 74.417802,16.464927 v 4.57285 l 1.301213,2.48615 h 3.788916 c 2.381244,0 3.005772,-0.1059 3.545519,-0.59273 0.518581,-0.47625 0.677479,-1.19605 0.677479,-3.03754 0,-1.15358 -0.04227,-1.59807 -0.201022,-2.09548 -0.211664,-0.65617 -0.677646,-1.0582 -1.376143,-1.19579 -0.603247,-0.127 -0.846672,-0.13746 -2.645833,-0.13746 z m 2.116667,1.76733 h 2.973462 c 1.31233,0 1.598313,0.0421 1.820561,0.29611 0.211666,0.23284 0.285771,0.62459 0.285771,1.49242 0,1.59808 -0.137816,1.70377 -2.085145,1.70377 h -2.994649 z" />
    <path
       id="path863"
       style="font-style:normal;font-variant:normal;font-weight:bold;font-stretch:normal;font-size:10.5833px;line-height:1.25;font-family:'Microgramma D Extended';-inkscape-font-specification:'Microgramma D Extended, Bold';font-variant-ligatures:normal;font-variant-caps:normal;font-variant-numeric:normal;font-variant-east-asian:normal;white-space:pre;fill:#458917;fill-opacity:1;stroke:none;stroke-width:1"
       d="m 17.976564,25.181191 -2.148189,2.414323 v 2.191084 c 0.01058,1.142997 0.0106,1.142796 0.02119,1.375624 0.05292,1.037161 0.169065,1.471067 0.518314,1.830898 0.529165,0.560919 1.375945,0.708999 4.074687,0.708999 1.640411,0 2.349832,-0.04195 2.98483,-0.168982 0.804331,-0.16933 1.34396,-0.730459 1.460376,-1.534789 0.0635,-0.497409 0.07418,-0.613672 0.105937,-2.21175 v -0.779749 l -0.181901,-0.16955 -1.966805,-1.648476 v 2.597775 c 0,0.148169 -0.0106,0.486767 -0.02119,0.730186 -0.03175,0.66675 -0.0844,0.857237 -0.253731,1.037146 -0.232833,0.254 -0.67738,0.317293 -2.159041,0.317293 -1.830912,0 -2.243647,-0.116041 -2.360063,-0.67696 -0.05292,-0.28575 -0.05325,-0.296418 -0.07441,-1.407665 z" />
    <path
       id="path865"
       style="font-style:normal;font-variant:normal;font-weight:bold;font-stretch:normal;font-size:10.5833px;line-height:1.25;font-family:'Microgramma D Extended';-inkscape-font-specification:'Microgramma D Extended, Bold';font-variant-ligatures:normal;font-variant-caps:normal;font-variant-numeric:normal;font-variant-east-asian:normal;white-space:pre;fill:#458917;fill-opacity:1;stroke:none;stroke-width:1"
       d="m 22.845001,26.537181 2.148706,1.799376 h 2.068607 v 5.260144 h 2.254643 v -5.260144 h 2.76779 l -0.889868,-1.799376 z" />
    <path
       id="path867"
       style="font-style:normal;font-variant:normal;font-weight:bold;font-stretch:normal;font-size:10.5833px;line-height:1.25;font-family:'Microgramma D Extended';-inkscape-font-specification:'Microgramma D Extended, Bold';font-variant-ligatures:normal;font-variant-caps:normal;font-variant-numeric:normal;font-variant-east-asian:normal;white-space:pre;fill:#458917;fill-opacity:1;stroke:none;stroke-width:1"
       d="m 31.864605,26.537181 3.49281,7.05952 h 3.291272 l 1.756999,-3.595129 v -3.464391 h -0.656291 l -2.539897,5.281332 h -0.412894 l -2.571936,-5.281332 z" />
    <path
       d="m 41.004703,26.537417 v 7.05906 h 2.254243 v -7.05906 z"
       style="font-style:normal;font-variant:normal;font-weight:bold;font-stretch:normal;font-size:10.5833px;line-height:1.25;font-family:'Microgramma D Extended';-inkscape-font-specification:'Microgramma D Extended, Bold';font-variant-ligatures:normal;font-variant-caps:normal;font-variant-numeric:normal;font-variant-east-asian:normal;white-space:pre;fill:#458917;fill-opacity:1;stroke:none"
       id="path869" />
    <path
       d="m 43.821186,26.537417 v 7.05906 h 2.14841 v -2.69874 h 1.174746 l 3.164407,2.69874 h 3.259656 l -4.423819,-3.59832 4.085149,-3.50307 h -3.291402 l -2.793991,2.60349 h -1.174746 v -2.56116 z"
       style="font-style:normal;font-variant:normal;font-weight:bold;font-stretch:normal;font-size:10.5833px;line-height:1.25;font-family:'Microgramma D Extended';-inkscape-font-specification:'Microgramma D Extended, Bold';font-variant-ligatures:normal;font-variant-caps:normal;font-variant-numeric:normal;font-variant-east-asian:normal;white-space:pre;fill:#458917;fill-opacity:1;stroke:none"
       id="path871" />
    <path
       id="path873"
       style="font-style:normal;font-variant:normal;font-weight:bold;font-stretch:normal;font-size:10.5833px;line-height:1.25;font-family:'Microgramma D Extended';-inkscape-font-specification:'Microgramma D Extended, Bold';font-variant-ligatures:normal;font-variant-caps:normal;font-variant-numeric:normal;font-variant-east-asian:normal;white-space:pre;fill:#458917;fill-opacity:1;stroke:none;stroke-width:1"
       d="m 54.075652,26.560438 -2.254126,1.932181 v 2.910416 l 2.696476,2.193666 h 4.090707 v -1.799376 h -4.533057 z" />
    <path
       d="m 59.209307,26.537417 v 7.05906 h 2.25425 v -7.05906 z"
       style="font-style:normal;font-variant:normal;font-weight:bold;font-stretch:normal;font-size:10.5833px;line-height:1.25;font-family:'Microgramma D Extended';-inkscape-font-specification:'Microgramma D Extended, Bold';font-variant-ligatures:normal;font-variant-caps:normal;font-variant-numeric:normal;font-variant-east-asian:normal;white-space:pre;fill:#458917;fill-opacity:1;stroke:none"
       id="path875" />
    <path
       id="path877"
       style="font-style:normal;font-variant:normal;font-weight:bold;font-stretch:normal;font-size:10.5833px;line-height:1.25;font-family:'Microgramma D Extended';-inkscape-font-specification:'Microgramma D Extended, Bold';font-variant-ligatures:normal;font-variant-caps:normal;font-variant-numeric:normal;font-variant-east-asian:normal;white-space:pre;fill:#458917;fill-opacity:1;stroke:none;stroke-width:1"
       d="m 62.063795,26.537181 v 7.05952 h 1.590601 l -0.05323,-5.270482 h 0.233061 l 3.714502,5.270482 h 3.691763 c -0.770014,-0.58946 -0.858345,-1.420635 -0.858345,-3.64009 0,-1.823426 0.158091,-2.847306 0.868164,-3.41943 h -2.155942 l 0.05271,5.260144 H 68.924872 L 65.23104,26.537181 Z" />
    <path
       d="m 75.404688,29.595987 v 1.40758 h 2.82574 v 0.20108 c 0,0.78317 -0.0635,0.80434 -2.57174,0.80434 l -1.25941,-0.0212 c -0.60325,-0.0212 -0.79375,-0.0529 -0.97367,-0.20108 -0.23283,-0.1905 -0.29633,-0.55034 -0.29633,-1.74625 0,-1.83091 0.0106,-1.84149 2.55058,-1.84149 1.60866,0 2.10607,0.0423 2.31774,0.1905 0.13758,0.0952 0.15875,0.17991 0.16933,0.59266 h 2.14841 c -0.0106,-1.03716 -0.0952,-1.47108 -0.39158,-1.82033 -0.46567,-0.56091 -1.43933,-0.73024 -4.06399,-0.73024 -4.57198,0 -4.8789,0.22225 -4.8789,3.52424 0,2.31774 0.11642,2.83632 0.74083,3.24907 0.59267,0.40216 1.34408,0.49741 3.76766,0.49741 1.91557,0 2.6564,-0.0423 3.37607,-0.1905 0.84666,-0.16933 1.30175,-0.65616 1.38641,-1.48166 0.0318,-0.33866 0.0741,-1.54516 0.0741,-2.24366 v -0.1905 z"
       style="font-style:normal;font-variant:normal;font-weight:bold;font-stretch:normal;font-size:10.5833px;line-height:1.25;font-family:'Microgramma D Extended';-inkscape-font-specification:'Microgramma D Extended, Bold';font-variant-ligatures:normal;font-variant-caps:normal;font-variant-numeric:normal;font-variant-east-asian:normal;white-space:pre;fill:#458917;fill-opacity:1;stroke:none"
       id="path879" />
  </g>
</svg>
